<svg width="25" height="23" viewBox="0 0 25 23" fill="none" xmlns="http://www.w3.org/2000/svg">
<path fill-rule="evenodd" clip-rule="evenodd" d="M12.9653 19.4946C12.674 19.3415 12.326 19.3415 12.0347 19.4946L6.35837 22.4788C5.62474 22.8645 4.76731 22.2416 4.90742 21.4247L5.9915 15.104C6.04713 14.7796 5.93959 14.4486 5.7039 14.2189L1.11169 9.7426C0.51817 9.16406 0.845679 8.15609 1.6659 8.0369L8.01218 7.11473C8.33789 7.06741 8.61946 6.86284 8.76512 6.56769L11.6033 0.816987C11.9701 0.0737408 13.0299 0.0737399 13.3967 0.816986L16.2349 6.56769C16.3805 6.86284 16.6621 7.06741 16.9878 7.11473L23.3341 8.0369C24.1543 8.15609 24.4818 9.16406 23.8883 9.7426L19.2961 14.2189C19.0604 14.4486 18.9529 14.7796 19.0085 15.104L20.0926 21.4247C20.2327 22.2416 19.3753 22.8645 18.6416 22.4788L12.9653 19.4946Z" fill="#D7D7E2"/>
</svg>
