<svg xmlns="http://www.w3.org/2000/svg" height="1000" width="1000" version="1.1" xmlns:xlink="http://www.w3.org/1999/xlink" xmlns:svgjs="http://svgjs.com/svgjs" display="none">
    <defs>
        <symbol id="back-view-of-monitor-and-keyboard" viewBox="0 0 501 268" fill="none">
            
            <path d="M56.65 224.17C43.01 224.17 30.1301 213.06 27.9501 199.4L0.360054 25.63C-0.209946 22.53 -0.0999443 19.35 0.690056 16.3C1.47006 13.26 2.92005 10.42 4.93005 8C6.95005 5.69 9.45006 3.84999 12.2601 2.61999C15.0701 1.37999 18.1201 0.780002 21.1901 0.850002H284.64C298.29 0.850002 311.16 11.96 313.35 25.61L340.93 199.39C341.59 202.44 341.54 205.61 340.78 208.64C340.03 211.67 338.59 214.49 336.58 216.88C334.57 219.27 332.04 221.17 329.19 222.43C326.33 223.7 323.22 224.29 320.1 224.17H56.65Z" fill="var(--accent-color)"></path>
            <path opacity="0.15" d="M142.12 224.03L130.12 149.13L213.45 149.09L225.45 224.03H142.12Z" fill="#1D1A11"></path>
            <path d="M98.36 267.1L129.98 148.98L213.31 148.95L181.68 267.1H98.36Z" fill="#EBE8DF"></path>
            <path d="M161.77 104.19C153.01 104.19 144.4 97.42 140.35 87.35C137.9 81.54 137.45 75.08 139.09 68.98C139.74 66.36 140.99 63.93 142.73 61.87C144.48 59.81 146.67 58.18 149.15 57.11C151.02 56.36 153.02 55.97 155.04 55.98C163.8 55.98 172.41 62.74 176.46 72.81C181.56 85.48 177.61 99.05 167.65 103.06C165.78 103.81 163.78 104.19 161.77 104.19Z" fill="#EBE8DF"></path>
            <path d="M110.46 223.31L130.02 150.35H213.31L193.75 223.31" stroke="#1D1A11" stroke-width="4" stroke-linecap="round" stroke-linejoin="round"></path>
            <path d="M201.22 267.1L201.18 264.34C201.18 260.05 202.89 255.93 205.93 252.89C208.97 249.85 213.09 248.14 217.38 248.14H483.96C488.26 248.14 492.38 249.85 495.41 252.89C498.45 255.93 500.16 260.05 500.17 264.34V267.1H201.22Z" fill="var(--accent-color)"></path>
            <path d="M388.72 267.1L388.68 264.34C388.68 260.05 390.39 255.93 393.43 252.89C396.47 249.85 400.59 248.14 404.88 248.14H483.96C488.26 248.14 492.38 249.85 495.41 252.89C498.45 255.93 500.16 260.05 500.17 264.34V267.1H388.72Z" fill="#1D1A11"></path>
        </symbol>
        <symbol id="code-screen" viewBox="0 0 501 402" fill="none">
            
            <path d="M31.44 0H468.84C472.97 0 477.06 0.810015 480.87 2.39001C484.68 3.97001 488.15 6.28999 491.07 9.20999C493.99 12.13 496.31 15.59 497.89 19.41C499.47 23.22 500.28 27.31 500.28 31.44V370.1C500.28 374.23 499.47 378.32 497.89 382.13C496.31 385.95 493.99 389.41 491.07 392.33C488.15 395.25 484.68 397.57 480.87 399.15C477.06 400.73 472.97 401.54 468.84 401.54H31.44C27.31 401.54 23.22 400.73 19.41 399.15C15.59 397.57 12.13 395.25 9.20999 392.33C6.28999 389.41 3.97 385.95 2.39 382.13C0.809999 378.32 0 374.23 0 370.1V31.44C0 27.31 0.809999 23.22 2.39 19.41C3.97 15.59 6.28999 12.13 9.20999 9.20999C12.13 6.28999 15.59 3.97001 19.41 2.39001C23.22 0.810015 27.31 0 31.44 0Z" fill="#000"></path>
            <path d="M71.08 123.25H207.63C211.81 123.26 215.81 124.92 218.77 127.87C221.72 130.82 223.38 134.83 223.39 139.01C223.38 143.18 221.72 147.19 218.77 150.14C215.81 153.09 211.81 154.76 207.63 154.76H71.08C66.9 154.76 62.9001 153.09 59.9401 150.14C56.9901 147.19 55.3301 143.18 55.3201 139.01C55.3301 134.83 56.9901 130.82 59.9401 127.87C62.9001 124.92 66.9 123.26 71.08 123.25Z" fill="var(--accent-color)"></path>
            <path d="M71.08 188.38H150.91C155.09 188.38 159.09 190.04 162.04 193C165 195.95 166.66 199.95 166.67 204.13C166.66 208.31 165 212.31 162.04 215.27C159.09 218.22 155.09 219.88 150.91 219.89H71.08C66.9 219.88 62.9001 218.22 59.9401 215.27C56.9901 212.31 55.3301 208.31 55.3201 204.13C55.3301 199.95 56.9901 195.95 59.9401 193C62.9001 190.04 66.9 188.38 71.08 188.38Z" fill="white"></path>
            <path d="M203.43 188.38H228.64C232.82 188.38 236.82 190.04 239.78 193C242.73 195.95 244.39 199.95 244.4 204.13C244.39 208.31 242.73 212.31 239.78 215.27C236.82 218.22 232.82 219.88 228.64 219.89H203.43C199.25 219.88 195.25 218.22 192.3 215.27C189.34 212.31 187.68 208.31 187.68 204.13C187.68 199.95 189.34 195.95 192.3 193C195.25 190.04 199.25 188.38 203.43 188.38Z" fill="#9E76DD"></path>
            <path d="M71.08 253.5H90.6901C94.8601 253.51 98.8701 255.17 101.82 258.12C104.77 261.08 106.44 265.08 106.44 269.26C106.44 273.43 104.77 277.44 101.82 280.39C98.8701 283.35 94.8601 285.01 90.6901 285.01H71.08C66.9 285.01 62.9001 283.35 59.9401 280.39C56.9901 277.44 55.3301 273.43 55.3201 269.26C55.3301 265.08 56.9901 261.08 59.9401 258.12C62.9001 255.17 66.9 253.51 71.08 253.5Z" fill="white"></path>
            <path d="M143.21 253.5H260.85C265.03 253.51 269.04 255.17 271.99 258.12C274.94 261.08 276.6 265.08 276.61 269.26C276.6 273.43 274.94 277.44 271.99 280.39C269.04 283.35 265.03 285.01 260.85 285.01H143.21C139.03 285.01 135.03 283.35 132.07 280.39C129.12 277.44 127.46 273.43 127.45 269.26C127.46 265.08 129.12 261.08 132.07 258.12C135.03 255.17 139.03 253.51 143.21 253.5Z" fill="#9E76DD"></path>
            <path d="M313.38 253.5H414.22C418.39 253.51 422.4 255.17 425.35 258.12C428.3 261.08 429.97 265.08 429.97 269.26C429.97 273.43 428.3 277.44 425.35 280.39C422.4 283.35 418.39 285.01 414.22 285.01H313.38C309.2 285.01 305.19 283.35 302.24 280.39C299.29 277.44 297.63 273.43 297.62 269.26C297.63 265.08 299.29 261.08 302.24 258.12C305.19 255.17 309.2 253.51 313.38 253.5Z" fill="#FFC930"></path>
            <path d="M71.08 318.63H134.1C138.28 318.63 142.28 320.3 145.24 323.25C148.19 326.2 149.85 330.21 149.86 334.38C149.85 338.56 148.19 342.56 145.24 345.52C142.28 348.47 138.28 350.13 134.1 350.14H71.08C66.9 350.13 62.9001 348.47 59.9401 345.52C56.9901 342.56 55.3301 338.56 55.3201 334.38C55.3301 330.21 56.9901 326.2 59.9401 323.25C62.9001 320.3 66.9 318.63 71.08 318.63Z" fill="#FF4F32"></path>
            <path d="M186.62 318.63H200.63C204.81 318.63 208.81 320.3 211.76 323.25C214.72 326.2 216.38 330.21 216.39 334.38C216.38 338.56 214.72 342.56 211.76 345.52C208.81 348.47 204.81 350.13 200.63 350.14H186.62C182.45 350.13 178.44 348.47 175.49 345.52C172.54 342.56 170.87 338.56 170.87 334.38C170.87 330.21 172.54 326.2 175.49 323.25C178.44 320.3 182.45 318.63 186.62 318.63Z" fill="white"></path>
            <path d="M253.15 318.63H336.48C340.66 318.63 344.67 320.3 347.62 323.25C350.57 326.2 352.23 330.21 352.24 334.38C352.23 338.56 350.57 342.56 347.62 345.52C344.67 348.47 340.66 350.13 336.48 350.14H253.15C248.97 350.13 244.97 348.47 242.02 345.52C239.06 342.56 237.4 338.56 237.39 334.38C237.4 330.21 239.06 326.2 242.02 323.25C244.97 320.3 248.97 318.63 253.15 318.63Z" fill="var(--accent-color)"></path>
            <path d="M31.44 0H468.84C472.97 0 477.06 0.810015 480.87 2.39001C484.68 3.97001 488.15 6.28999 491.07 9.20999C493.99 12.13 496.31 15.59 497.89 19.41C499.47 23.22 500.28 27.31 500.28 31.44V64.43H0V31.44C0 27.31 0.809999 23.22 2.39 19.41C3.97 15.59 6.28999 12.13 9.20999 9.20999C12.13 6.28999 15.59 3.97001 19.41 2.39001C23.22 0.810015 27.31 0 31.44 0Z" fill="var(--accent-color)"></path>
            <path d="M454.06 46.29C461.64 46.29 467.79 40.14 467.79 32.56C467.79 24.98 461.64 18.84 454.06 18.84C446.48 18.84 440.34 24.98 440.34 32.56C440.34 40.14 446.48 46.29 454.06 46.29Z" stroke-width="4" stroke-linecap="round" stroke-linejoin="round" stroke="#fff"></path>
            <path d="M439.43 47.2L444.4 42.23" stroke-width="4" stroke-linecap="round" stroke-linejoin="round" stroke="#fff"></path>
        </symbol>
        <symbol id="open-source-symbols" viewBox="0 0 491 194" fill="none">
            <title>Open source symbols</title>
            <path d="M360.46 6.60999L489 97.13L360.46 187.65" stroke="#000" stroke-width="4" stroke-linecap="round" stroke-linejoin="round"/>
            <path d="M130.9 187.65L2 97.13L130.9 6.60999" stroke="#000" stroke-width="4" stroke-linecap="round" stroke-linejoin="round"/>
            <path d="M275.01 2.26001L215.99 191.99" stroke="#016BDE" stroke-width="4" stroke-linecap="round" stroke-linejoin="round"/>
        </symbol>
    </defs>
</svg>